<svg width="512" height="458" viewBox="0 0 512 458" fill="none" xmlns="http://www.w3.org/2000/svg">
<path d="M417.228 95.496L273.978 210.439L397.057 305.211L512 190.268L417.228 95.496Z" fill="#4895FF"/>
<path d="M417.228 95.496L322.456 0.724001L207.513 115.668L288.131 224.593L417.228 95.496Z" fill="#7ED8F6"/>
<path d="M227.693 256.724L350.772 351.496L397.057 305.211L302.285 210.439L227.693 256.724Z" fill="#E1EBF0"/>
<path d="M302.285 210.439L207.513 115.668L161.228 161.952L241.847 270.878L302.285 210.439Z" fill="#FFF5F5"/>
<path d="M94.772 417.952L134.095 457.276H244.992L350.772 351.496L256 256.724L169.991 314.427L94.772 417.952Z" fill="#FAA68E"/>
<path d="M-0.0283666 323.155L161.175 161.951L255.933 256.709L94.7294 417.912L-0.0283666 323.155Z" fill="#FFCDBE"/>
</svg>
