<svg width="230" height="230" viewBox="0 0 230 230" fill="none" xmlns="http://www.w3.org/2000/svg">
<path d="M34.3407 149.972L18.3618 165.951L0.11227 226.576C-0.168492 227.513 0.0859488 228.529 0.779081 229.221C1.47046 229.914 2.48647 230.168 3.42351 229.888L64.0488 211.638L80.026 195.659L34.3407 149.972Z" fill="#FA9F6A"/>
<path d="M36.8658 152.499L34.3407 149.972L18.3618 165.951L0.11227 226.576C-0.168492 227.513 0.0859488 228.529 0.779081 229.221C1.47046 229.912 2.48647 230.168 3.42351 229.886L14.7365 226.482L36.8658 152.499Z" fill="#EB8F59"/>
<path d="M8.36843 199.149L0.11227 226.576C-0.168492 227.513 0.0859488 228.529 0.779081 229.221C1.47046 229.912 2.48647 230.168 3.42351 229.886L30.8505 221.632L8.36843 199.149Z" fill="#23CE07"/>
<path d="M19.6042 210.385L8.36843 199.149L0.11227 226.576C-0.168492 227.513 0.0859488 228.529 0.779081 229.221C1.47046 229.912 2.48647 230.168 3.42351 229.886L14.761 226.475L19.6042 210.385Z" fill="#23CE07"/>
<path d="M64.0488 211.638L60.5358 191.685L38.3152 169.464L18.3618 165.951L151.929 32.3837L197.616 78.0708L64.0488 211.638Z" fill="#168114"/>
<path d="M163.662 44.1178L185.882 66.3384L60.5358 191.685L41.2053 188.795L38.3152 169.464L163.662 44.1178Z" fill="#0FD930"/>
<path d="M201.361 74.3261L155.674 28.6391L181.265 3.04934C185.329 -1.01645 191.922 -1.01645 195.988 3.04934L226.951 34.0121C231.016 38.0779 231.016 44.6688 226.951 48.7346L201.361 74.3261Z" fill="#0FD930"/>
<path d="M207.222 14.2833L195.988 3.04934C191.922 -1.01645 185.329 -1.01645 181.265 3.04934L155.674 28.6391L166.908 39.8748L192.499 14.2833C196.565 10.2176 203.158 10.2176 207.222 14.2833Z" fill="#168114"/>
<path d="M182.427 90.8893L139.111 47.573C137.008 45.469 137.008 42.0613 139.111 39.9591L155.983 23.087C158.085 20.983 161.494 20.983 163.597 23.087L206.913 66.4034C209.017 68.5056 209.017 71.9151 206.913 74.0173L190.041 90.8893C187.939 92.9915 184.531 92.9915 182.427 90.8893V90.8893Z" fill="#D9D7D8"/>
<path d="M150.345 51.193L167.217 34.321C169.321 32.2188 172.728 32.2188 174.832 34.321L163.597 23.0852C161.494 20.983 158.085 20.983 155.983 23.0852L139.111 39.9573C137.008 42.0612 137.008 45.469 139.111 47.573L150.345 58.807C148.242 56.7047 148.242 53.2952 150.345 51.193V51.193Z" fill="#BAB8B9"/>
</svg>
