<svg width="444" height="512" viewBox="0 0 444 512" fill="none" xmlns="http://www.w3.org/2000/svg">
<path d="M135.785 10.9109L71.2113 0.202983C66.8638 -0.519944 62.4192 0.708932 59.0586 3.55864C55.6969 6.40935 53.7591 10.5919 53.7591 14.9985V138.016C53.7591 146.299 60.4744 153.014 68.7576 153.014H133.331C141.614 153.014 148.329 146.299 148.329 138.016V25.7074C148.329 18.3711 143.023 12.1108 135.785 10.9109V10.9109Z" fill="#FFD422"/>
<path d="M135.785 10.9109L101.045 5.14948V82.5496L111.044 153.014H133.332C141.615 153.014 148.33 146.299 148.33 138.016V25.7074C148.329 18.3711 143.023 12.1108 135.785 10.9109V10.9109Z" fill="#FDBF00"/>
<path d="M148.329 82.5496L200.093 178.917C202.674 183.562 202.604 189.228 199.909 193.807C197.215 198.388 192.297 201.201 186.983 201.201H15.107C9.79256 201.201 4.87506 198.388 2.18033 193.807C-0.514397 189.228 -0.584388 183.563 1.99635 178.917L53.7601 82.5496H148.329Z" fill="#87A0AF"/>
<path d="M148.329 82.5496H101.044V186.201L111.043 201.2H186.982C192.296 201.2 197.214 198.387 199.908 193.806C202.603 189.227 202.673 183.562 200.092 178.916L148.329 82.5496Z" fill="#607882"/>
<path d="M201.981 186.201V454.058C201.981 485.979 176.011 511.948 144.09 511.948H57.9997C26.0789 511.948 0.10854 485.978 0.10854 454.058V186.201H201.981Z" fill="#FFD422"/>
<path d="M201.981 186.201V454.058C201.981 485.979 176.011 511.948 144.09 511.948H101.045V420.305L108.045 400.518V276.08L101.045 255.036V186.201H201.981Z" fill="#FDBF00"/>
<path d="M101.045 420.306C92.7621 420.306 86.0468 413.591 86.0468 405.308V270.034C86.0468 261.75 92.7621 255.035 101.045 255.035C109.328 255.035 116.044 261.75 116.044 270.034V405.308C116.044 413.592 109.328 420.306 101.045 420.306Z" fill="#87A0AF"/>
<path d="M428.893 289.039H257.018C248.735 289.039 242.02 295.754 242.02 304.037V454.11C242.02 486.031 267.989 512 299.91 512H342.955L357.953 502.001L372.952 512H386C417.921 512 443.891 486.03 443.891 454.11V304.037C443.891 295.754 437.176 289.039 428.893 289.039V289.039Z" fill="#FFD422"/>
<path d="M116.044 405.308V270.034C116.044 261.75 109.328 255.035 101.045 255.035V420.306C109.328 420.306 116.044 413.592 116.044 405.308Z" fill="#607882"/>
<path d="M428.893 289.039H342.956V345.664L352.955 360.091L342.956 377.931V512.001L357.954 502.002L372.953 512.001H386C417.921 512.001 443.891 486.031 443.891 454.111V304.037C443.891 295.754 437.176 289.039 428.893 289.039V289.039Z" fill="#FDBF00"/>
<path d="M340.591 345.568H315.739C307.456 345.568 300.741 352.283 300.741 360.566C300.741 368.85 307.456 375.565 315.739 375.565H340.591C341.895 375.565 342.956 376.626 342.956 377.93V511.948H372.953V377.931C372.953 360.085 358.435 345.568 340.591 345.568Z" fill="#87A0AF"/>
<path d="M342.956 345.664V377.93V511.948H372.953V377.931C372.953 360.881 359.699 346.881 342.956 345.664Z" fill="#607882"/>
</svg>
