<svg width="512" height="512" viewBox="0 0 512 512" fill="none" xmlns="http://www.w3.org/2000/svg">
<path d="M507.607 44.694L467.305 4.394C461.448 -1.463 451.95 -1.463 446.092 4.394L401.853 48.633C395.995 54.49 395.995 63.988 401.853 69.846L442.154 110.147C445.083 113.077 448.922 114.541 452.76 114.541C456.598 114.541 460.438 113.076 463.366 110.147L507.606 65.908C510.419 63.095 512 59.28 512 55.302C512 51.324 510.421 47.507 507.607 44.694V44.694Z" fill="#61729B"/>
<path d="M507.607 44.694L487.26 24.348L450.034 61.574L429.586 97.579L442.154 110.147C445.083 113.077 448.922 114.541 452.76 114.54C456.598 114.54 460.438 113.075 463.367 110.147L507.607 65.908C510.421 63.096 512 59.28 512.001 55.302C512.001 51.322 510.421 47.507 507.607 44.694V44.694Z" fill="#47568C"/>
<path d="M415.434 156.946L355.054 96.565H333.841L103.898 326.575L104.706 346.914L165.086 407.294L185.424 408.102L415.434 178.159V156.946Z" fill="#D9F2FF"/>
<path d="M392.119 133.631L374.442 137.165L310.083 173.24L278.194 233.413L144.465 367.143L141.771 383.979L165.086 407.294L185.424 408.102L415.434 178.159V156.946L392.119 133.631Z" fill="#C4E1FF"/>
<path d="M415.434 178.159L463.917 129.675C471.158 122.434 475.146 112.806 475.146 102.566C475.146 92.326 471.158 82.698 463.917 75.457L436.543 48.083C421.596 33.134 397.272 33.134 382.324 48.083L333.841 96.566L415.434 178.159Z" fill="#FF6699"/>
<path d="M103.898 326.575C60.452 377.526 38.252 418.46 9.341 475.094L1.64 490.18C-1.316 495.972 -0.205 503.009 4.394 507.607C7.276 510.488 11.115 512 15.005 512C17.322 512 19.658 511.464 21.82 510.359L36.905 502.659C93.54 473.747 134.474 451.546 185.424 408.101L103.898 326.575Z" fill="#61729B"/>
<path d="M463.918 75.456L450.035 61.573L401.445 110.163L370.199 132.923L415.434 178.159L463.917 129.675C471.158 122.434 475.146 112.806 475.146 102.566C475.147 92.325 471.159 82.697 463.918 75.456V75.456Z" fill="#E62E6B"/>
<path d="M4.205 507.402C4.27 507.469 4.328 507.54 4.394 507.606C7.276 510.488 11.115 512 15.006 512C17.323 512 19.659 511.464 21.821 510.359L36.906 502.659C93.541 473.747 134.475 451.546 185.425 408.101L144.466 367.142L4.205 507.402Z" fill="#47568C"/>
<path d="M401.388 88.894L358.691 46.197C352.834 40.34 343.336 40.34 337.478 46.197L214.228 169.447C208.37 175.304 208.37 184.802 214.228 190.66L256.925 233.358C259.738 236.171 263.553 237.752 267.531 237.752C271.509 237.752 275.325 236.172 278.137 233.358L401.387 110.107C407.247 104.249 407.247 94.751 401.388 88.894V88.894Z" fill="#FED843"/>
</svg>
